<?xml version="1.0" encoding="UTF-8" standalone="no"?>
<!DOCTYPE svg PUBLIC "-//W3C//DTD SVG 20010904//EN"
              "http://www.w3.org/TR/2001/REC-SVG-20010904/DTD/svg10.dtd">

<svg xmlns="http://www.w3.org/2000/svg"
     width="1.73333in" height="1.05in"
     viewBox="0 0 520 315">
  <path id="Selection"
        fill="none" stroke="black" stroke-width="1"
        d="M 0.00,0.13
           C 0.00,0.13 18.00,0.13 18.00,0.13
             18.00,0.13 32.00,3.00 32.00,3.00
             32.00,3.00 56.00,0.00 56.00,0.00
             56.00,0.00 75.00,0.00 75.00,0.00
             75.00,0.00 96.00,2.99 96.00,2.99
             96.00,2.99 116.00,0.00 116.00,0.00
             116.00,0.00 193.00,0.00 193.00,0.00
             193.00,0.00 212.00,3.00 212.00,3.00
             212.00,3.00 236.00,0.00 236.00,0.00
             236.00,0.00 261.00,2.99 261.00,2.99
             261.00,2.99 280.00,0.00 280.00,0.00
             280.00,0.00 299.00,0.00 299.00,0.00
             299.00,0.00 299.00,3.00 299.00,3.00
             299.00,3.00 314.00,3.00 314.00,3.00
             314.00,3.00 329.00,0.00 329.00,0.00
             329.00,0.00 349.00,0.00 349.00,0.00
             349.00,0.00 368.00,2.96 368.00,2.96
             368.00,2.96 387.00,0.00 387.00,0.00
             387.00,0.00 409.00,0.73 409.00,0.73
             409.00,0.73 420.00,0.73 420.00,0.73
             420.00,0.73 431.00,0.00 431.00,0.00
             431.00,0.00 459.00,3.00 459.00,3.00
             459.00,3.00 479.00,0.00 479.00,0.00
             479.00,0.00 520.00,0.00 520.00,0.00
             520.00,0.00 520.00,315.00 520.00,315.00
             520.00,315.00 0.00,315.00 0.00,315.00
             0.00,315.00 0.00,0.13 0.00,0.13 Z
           M 257.00,29.00
           C 257.90,27.05 258.87,25.29 258.75,23.04
             258.32,14.96 243.27,15.37 243.76,24.00
             243.89,26.14 244.93,27.32 246.00,29.00
             246.00,29.00 185.00,33.00 185.00,33.00
             185.00,33.00 176.00,33.00 176.00,33.00
             176.00,33.00 141.00,35.91 141.00,35.91
             141.00,35.91 119.00,37.17 119.00,37.17
             110.27,38.00 96.66,38.02 89.02,42.00
             85.99,43.57 81.30,47.79 82.70,51.84
             84.15,55.73 90.48,53.17 93.00,51.84
             93.00,51.84 93.84,65.00 93.84,65.00
             93.84,65.00 78.86,98.00 78.86,98.00
             78.86,98.00 49.26,162.00 49.26,162.00
             49.26,162.00 39.26,183.00 39.26,183.00
             35.37,191.02 36.78,192.77 28.00,196.00
             30.59,203.78 32.24,209.37 37.68,215.91
             48.59,229.03 73.39,235.97 90.00,236.00
             90.00,236.00 116.00,236.00 116.00,236.00
             131.88,235.81 155.79,229.06 166.54,216.91
             172.71,209.92 174.17,204.49 177.00,196.00
             167.69,192.57 168.80,189.40 164.74,181.00
             164.74,181.00 153.58,157.00 153.58,157.00
             153.58,157.00 121.58,88.00 121.58,88.00
             121.58,88.00 111.45,66.00 111.45,66.00
             110.18,61.78 111.89,60.71 112.30,57.00
             112.62,54.20 111.76,51.65 111.00,49.00
             111.00,49.00 247.00,49.00 247.00,49.00
             247.00,49.00 246.00,69.00 246.00,69.00
             246.00,69.00 245.00,90.00 245.00,90.00
             245.00,90.00 244.00,119.00 244.00,119.00
             244.00,119.00 243.00,132.00 243.00,132.00
             243.00,132.00 242.00,160.00 242.00,160.00
             242.00,160.00 240.96,176.00 240.96,176.00
             240.96,176.00 240.96,188.00 240.96,188.00
             240.96,188.00 240.00,200.00 240.00,200.00
             240.00,200.00 239.00,219.00 239.00,219.00
             239.00,219.00 238.00,247.00 238.00,247.00
             238.00,247.00 236.96,260.00 236.96,260.00
             236.96,260.00 236.96,273.00 236.96,273.00
             236.96,273.00 236.00,286.00 236.00,286.00
             219.44,286.00 193.42,285.38 178.00,290.70
             170.79,293.18 164.31,296.67 158.24,301.29
             154.63,304.02 155.16,307.98 158.24,309.05
             158.24,309.05 169.00,309.05 169.00,309.05
             169.00,309.05 335.00,309.05 335.00,309.05
             335.00,309.05 341.00,309.05 341.00,309.05
             345.04,309.26 350.38,307.10 346.39,302.58
             346.39,302.58 334.00,294.37 334.00,294.37
             317.42,285.85 294.28,286.04 276.00,286.00
             267.76,285.98 266.06,285.74 266.00,277.00
             266.00,277.00 265.00,257.00 265.00,257.00
             265.00,257.00 264.00,235.00 264.00,235.00
             264.00,235.00 263.00,213.00 263.00,213.00
             263.00,213.00 262.00,195.00 262.00,195.00
             262.00,195.00 262.00,182.00 262.00,182.00
             262.00,182.00 261.00,169.00 261.00,169.00
             261.00,169.00 260.00,141.00 260.00,141.00
             260.00,141.00 259.00,121.00 259.00,121.00
             259.00,121.00 257.00,85.00 257.00,85.00
             257.00,85.00 256.00,49.00 256.00,49.00
             256.00,49.00 392.00,49.00 392.00,49.00
             386.91,60.00 393.99,58.72 390.81,67.04
             390.81,67.04 377.86,95.00 377.86,95.00
             377.86,95.00 357.31,139.00 357.31,139.00
             357.31,139.00 344.92,166.00 344.92,166.00
             344.92,166.00 333.20,190.94 333.20,190.94
             330.17,195.95 327.66,194.52 326.78,197.31
             326.02,199.71 328.43,204.81 329.53,207.00
             344.85,237.65 384.84,236.34 414.00,236.00
             420.63,235.92 433.72,233.48 440.00,231.30
             456.91,225.46 472.27,214.16 474.00,195.00
             466.91,194.41 466.82,190.96 464.08,185.00
             464.08,185.00 453.31,162.00 453.31,162.00
             453.31,162.00 423.22,97.00 423.22,97.00
             423.22,97.00 412.92,75.00 412.92,75.00
             412.92,75.00 408.29,64.42 408.29,64.42
             407.90,61.91 409.92,59.99 410.00,52.00
             419.75,56.52 422.87,51.54 419.11,46.18
             416.38,42.29 411.40,40.70 407.00,39.65
             397.26,37.33 386.95,37.78 377.00,36.83
             377.00,36.83 319.00,32.91 319.00,32.91
             319.00,32.91 257.00,29.00 257.00,29.00 Z
           M 99.00,66.00
           C 99.00,66.00 100.00,80.00 100.00,80.00
             100.00,80.00 100.00,105.00 100.00,105.00
             100.00,105.00 100.00,195.00 100.00,195.00
             100.00,195.00 40.00,195.00 40.00,195.00
             40.00,195.00 57.22,157.00 57.22,157.00
             57.22,157.00 86.31,94.00 86.31,94.00
             86.31,94.00 99.00,66.00 99.00,66.00 Z
           M 105.00,66.00
           C 105.00,66.00 113.92,84.00 113.92,84.00
             113.92,84.00 128.31,115.00 128.31,115.00
             128.31,115.00 154.86,172.00 154.86,172.00
             154.86,172.00 165.00,195.00 165.00,195.00
             165.00,195.00 105.00,195.00 105.00,195.00
             105.00,195.00 105.00,66.00 105.00,66.00 Z
           M 397.00,66.00
           C 397.00,66.00 398.00,80.00 398.00,80.00
             398.00,80.00 398.00,105.00 398.00,105.00
             398.00,105.00 398.00,195.00 398.00,195.00
             398.00,195.00 338.00,195.00 338.00,195.00
             338.00,195.00 355.69,155.00 355.69,155.00
             355.69,155.00 397.00,66.00 397.00,66.00 Z
           M 403.00,67.00
           C 403.00,67.00 412.31,86.00 412.31,86.00
             412.31,86.00 425.86,115.00 425.86,115.00
             425.86,115.00 463.00,195.00 463.00,195.00
             463.00,195.00 403.00,195.00 403.00,195.00
             403.00,195.00 403.00,67.00 403.00,67.00 Z" />
</svg>
